<svg width="19" height="20" viewBox="0 0 19 20" fill="none" xmlns="http://www.w3.org/2000/svg">
<path fill-rule="evenodd" clip-rule="evenodd" d="M3.57936 0C1.60117 0 0 1.60115 0 3.57935C0 5.55756 1.60117 7.15871 3.57936 7.15871C4.19757 7.15871 4.69873 6.65755 4.69873 6.03934C4.69873 5.42113 4.19757 4.91997 3.57936 4.91997C2.83757 4.91997 2.23874 4.32113 2.23874 3.57935C2.23874 2.83758 2.83758 2.23874 3.57936 2.23874C4.32114 2.23874 4.91997 2.83757 4.91997 3.57935C4.91997 4.19756 5.42113 4.69872 6.03934 4.69872C6.65755 4.69872 7.15871 4.19756 7.15871 3.57935C7.15871 1.60116 5.55757 0 3.57936 0ZM14.6594 0C12.6825 0 11.08 1.60256 11.08 3.57935C11.08 5.55615 12.6825 7.15871 14.6594 7.15871C16.6362 7.15871 18.2387 5.55618 18.2387 3.57935C18.2387 1.60253 16.6362 0 14.6594 0ZM13.3188 3.57935C13.3188 2.83893 13.9189 2.23874 14.6594 2.23874C15.3998 2.23874 16 2.83896 16 3.57935C16 4.31975 15.3998 4.91997 14.6594 4.91997C13.9189 4.91997 13.3188 4.31978 13.3188 3.57935ZM11.08 15.8894C11.08 13.9112 12.6812 12.31 14.6594 12.31C16.6376 12.31 18.2387 13.9112 18.2387 15.8894C18.2387 17.8676 16.6376 19.4687 14.6594 19.4687C14.0412 19.4687 13.54 18.9676 13.54 18.3494C13.54 17.7312 14.0412 17.23 14.6594 17.23C15.4012 17.23 16 16.6312 16 15.8894C16 15.1476 15.4012 14.5488 14.6594 14.5488C13.9176 14.5488 13.3188 15.1476 13.3188 15.8894C13.3188 16.5076 12.8176 17.0087 12.1994 17.0087C11.5812 17.0087 11.08 16.5076 11.08 15.8894ZM3.57936 12.2999C1.60254 12.2999 0 13.9025 0 15.8793C0 17.8562 1.60257 19.4587 3.57936 19.4587C5.55617 19.4587 7.15871 17.8562 7.15871 15.8793C7.15871 13.9025 5.5562 12.2999 3.57936 12.2999ZM2.23874 15.8793C2.23874 15.1389 2.83896 14.5387 3.57936 14.5387C4.31975 14.5387 4.91997 15.1389 4.91997 15.8793C4.91997 16.6198 4.31978 17.2199 3.57936 17.2199C2.83893 17.2199 2.23874 16.6198 2.23874 15.8793Z" fill="#5F6389"/>
</svg>
