<svg width="22" height="20" viewBox="0 0 22 20" fill="none" xmlns="http://www.w3.org/2000/svg">
<path d="M18.2 16.5249H3.8C1.8 16.5249 1 15.9489 1 14.5179V13.5819C1 12.1509 1.8 11.5749 3.8 11.5749H18.2C20.2 11.5749 21 12.1509 21 13.5819V14.5179C21 15.9489 20.2 16.5249 18.2 16.5249Z" stroke="#5F6389" stroke-width="1.79" stroke-linecap="round" stroke-linejoin="round"/>
<path d="M15.5334 3.92499H6.46669C4.46669 3.92499 3.66669 4.50098 3.66669 5.93198V6.86797C3.66669 8.29897 4.46669 8.87496 6.46669 8.87496H15.5334C17.5334 8.87496 18.3334 8.29897 18.3334 6.86797" stroke="#5F6389" stroke-width="1.79" stroke-linecap="round" stroke-linejoin="round"/>
<path d="M10.9999 19V16.84" stroke="#5F6389" stroke-width="1.79" stroke-linecap="round" stroke-linejoin="round"/>
<path d="M10.9999 10.9V9.09996" stroke="#5F6389" stroke-width="1.79" stroke-linecap="round" stroke-linejoin="round"/>
<path d="M10.9999 0.999985V3.42097" stroke="#5F6389" stroke-width="1.79" stroke-linecap="round" stroke-linejoin="round"/>
</svg>
