<svg width="22" height="21" viewBox="0 0 22 21" fill="none" xmlns="http://www.w3.org/2000/svg">
<path d="M1 3.03288C1 1.82185 1.96997 0.905958 3.15997 1.00773C5.25997 1.18073 8.43997 2.25949 10.22 3.38911L10.47 3.54172C10.76 3.72491 11.24 3.72491 11.53 3.54172L11.7 3.4298C12.33 3.0329 13.13 2.636 14 2.27982V6.43194L16 5.07842L18 6.43194V1.11972C18.27 1.06884 18.53 1.03827 18.77 1.01791H18.83C20.02 0.916145 21 1.82186 21 3.04307V15.3264C21 16.3034 20.22 17.2192 19.26 17.3413L18.93 17.3821C16.75 17.6773 13.39 18.8068 11.47 19.8855C11.21 20.0382 10.78 20.0382 10.51 19.8855L10.47 19.8653C8.54997 18.7967 5.20003 17.6773 3.03003 17.3821L2.73999 17.3413C1.77999 17.2192 1 16.3034 1 15.3264V7.29694" stroke="#5F6389" stroke-width="1.9" stroke-linecap="round" stroke-linejoin="round"/>
<path d="M11 3.87761V19.1427" stroke="#5F6389" stroke-width="1.9" stroke-linecap="round" stroke-linejoin="round"/>
<path d="M18 1.11976V6.43198L16 5.07845L14 6.43198V2.27985C15.31 1.75066 16.77 1.32329 18 1.11976Z" stroke="#5F6389" stroke-width="1.9" stroke-linecap="round" stroke-linejoin="round"/>
</svg>
