<svg width="21" height="22" viewBox="0 0 21 22" fill="none" xmlns="http://www.w3.org/2000/svg">
<path d="M13.3433 11C13.3433 9.24132 12.071 7.82167 10.4948 7.82167C8.91867 7.82167 7.64636 9.24132 7.64636 11C7.64636 12.7586 8.91867 14.1783 10.4948 14.1783C10.8841 14.1783 11.2639 14.0935 11.6057 13.924" stroke="#5F6389" stroke-width="1.79002" stroke-miterlimit="10" stroke-linecap="round" stroke-linejoin="round"/>
<path d="M5.63428 20.09L6.66921 20.7575C7.4193 21.2554 8.38778 20.9588 8.83407 20.1218L8.93851 19.9205C9.79305 18.2572 11.1983 18.2572 12.0623 19.9205L12.1668 20.1218C12.613 20.9588 13.5815 21.2554 14.3316 20.7575L15.9742 19.7087C16.8382 19.1577 17.1325 17.9182 16.6388 16.9647C15.7748 15.3014 16.4774 13.9453 18.196 13.9453C19.1834 13.9453 20 13.0448 20 11.9324V10.0678C20 8.96597 19.1929 8.05482 18.196 8.05482C17.237 8.05482 16.5913 7.63104 16.3635 6.9636C16.1831 6.44448 16.259 5.76644 16.6388 5.03542C17.1325 4.07134 16.8382 2.84239 15.9742 2.29148L15.2051 1.80414" stroke="#5F6389" stroke-width="1.79002" stroke-miterlimit="10" stroke-linecap="round" stroke-linejoin="round"/>
<path d="M12.052 2.07946C11.1974 3.74278 9.79221 3.74278 8.92818 2.07946L8.82374 1.87817C8.38697 1.04121 7.4185 0.744571 6.66841 1.24251L5.02581 2.29135C4.16178 2.84226 3.86744 4.0818 4.36117 5.04588C5.2252 6.6986 4.52258 8.05468 2.80402 8.05468C1.81656 8.05468 1 8.95516 1 10.0676V11.9322C1 13.034 1.80706 13.9451 2.80402 13.9451C4.52258 13.9451 5.2252 15.3012 4.36117 16.9645" stroke="#5F6389" stroke-width="1.79002" stroke-miterlimit="10" stroke-linecap="round" stroke-linejoin="round"/>
</svg>
