<svg width="1800" height="4000" viewBox="0 0 1800 4000" fill="none" xmlns="http://www.w3.org/2000/svg">
<g clip-path="url(#clip0_3128_280)">
<path d="M-78.7778 637.781L-85.8496 630.709C-158.181 558.378 -158.181 441.107 -85.8496 368.776L223.559 59.367C295.89 -12.964 413.162 -12.964 485.493 59.3669L492.564 66.4387C564.895 138.77 564.895 256.041 492.564 328.372L183.156 637.781C110.825 710.112 -6.4469 710.112 -78.7778 637.781Z" fill="#E1CAFF" fill-opacity="0.2"/>
<path d="M1172.6 408.022L1165.53 400.95C1093.2 328.619 1093.2 211.348 1165.53 139.017L1404.23 -99.6813C1476.56 -172.012 1593.83 -172.012 1666.16 -99.6813L1673.24 -92.6096C1745.57 -20.2786 1745.57 96.9931 1673.24 169.324L1434.54 408.022C1362.21 480.353 1244.94 480.353 1172.6 408.022Z" fill="#E1CAFF" fill-opacity="0.21"/>
<g clip-path="url(#clip1_3128_280)">
<path d="M-372.778 781.781L-379.85 774.709C-452.181 702.378 -452.181 585.106 -379.85 512.776L-70.4409 203.367C1.89004 131.036 119.162 131.036 191.493 203.367L198.564 210.439C270.895 282.77 270.895 400.041 198.564 472.372L-110.844 781.781C-183.175 854.112 -300.447 854.112 -372.778 781.781Z" fill="url(#paint0_linear_3128_280)"/>
<path d="M878.605 552.022L871.533 544.95C799.202 472.619 799.202 355.348 871.533 283.017L1110.23 44.3188C1182.56 -28.0122 1299.83 -28.0122 1372.16 44.3187L1379.24 51.3905C1451.57 123.721 1451.57 240.993 1379.24 313.324L1140.54 552.022C1068.21 624.353 950.936 624.353 878.605 552.022Z" fill="url(#paint1_linear_3128_280)"/>
</g>
</g>
<defs>
<linearGradient id="paint0_linear_3128_280" x1="-376.314" y1="778.245" x2="195.029" y2="206.903" gradientUnits="userSpaceOnUse">
<stop offset="0.109375" stop-color="#7B1BDF"/>
<stop offset="0.255208" stop-color="#AE2EE3"/>
<stop offset="0.395833" stop-color="#8458EB"/>
<stop offset="0.5625" stop-color="#4B98E3"/>
</linearGradient>
<linearGradient id="paint1_linear_3128_280" x1="875.069" y1="548.486" x2="1375.7" y2="47.8547" gradientUnits="userSpaceOnUse">
<stop offset="0.109375" stop-color="#7B1BDF"/>
<stop offset="0.255208" stop-color="#AE2EE3"/>
<stop offset="0.395833" stop-color="#8458EB"/>
<stop offset="0.5625" stop-color="#4B98E3"/>
</linearGradient>
<clipPath id="clip0_3128_280">
<rect width="1800" height="4000" fill="white"/>
</clipPath>
<clipPath id="clip1_3128_280">
<rect width="1800" height="4000" fill="white" transform="translate(-294 144)"/>
</clipPath>
</defs>
</svg>
