<svg width="85" height="31" viewBox="0 0 85 31" fill="none" xmlns="http://www.w3.org/2000/svg">
<path d="M12.54 27C11.3 27 10.21 26.72 9.27 26.16C8.33 25.58 7.6 24.82 7.08 23.88C6.56 22.92 6.3 21.87 6.3 20.73V9.78H0.45V6H16.44V9.78H10.59V21.24C10.59 21.78 10.78 22.25 11.16 22.65C11.54 23.03 12 23.22 12.54 23.22H14.04V27H12.54Z" fill="black"/>
<rect x="32" y="19" width="2.7" height="7" fill="black"/>
<path d="M28.7811 20.2259L26.5589 18.9309C26.1718 18.7069 25.8564 18.1679 25.8564 17.7269V14.8569" stroke="#9747FF" stroke-width="1.9" stroke-linecap="round" stroke-linejoin="round"/>
<path d="M20.3858 13.8C19.4898 14.969 18.9521 16.425 18.9521 18C18.9521 21.864 22.1635 25 26.1203 25C30.0771 25 33.2885 21.864 33.2885 18C33.2885 14.136 30.0771 11 26.1203 11C25.0953 11 24.1132 11.21 23.2315 11.595" stroke="black" stroke-width="3" stroke-linecap="round" stroke-linejoin="round"/>
<path d="M38.8 26V15.05C38.8 13.69 39.18 12.63 39.94 11.87C40.72 11.09 41.79 10.7 43.15 10.7H47.38V14.21H43.87C43.61 14.21 43.38 14.3 43.18 14.48C43 14.66 42.91 14.89 42.91 15.17V26H38.8ZM57.5534 26C55.8134 26 54.2934 25.67 52.9934 25.01C51.7134 24.33 50.7134 23.41 49.9934 22.25C49.2934 21.09 48.9434 19.79 48.9434 18.35C48.9434 16.73 49.2734 15.32 49.9334 14.12C50.5934 12.92 51.4934 11.99 52.6334 11.33C53.7734 10.67 55.0634 10.34 56.5034 10.34C58.2234 10.34 59.6134 10.7 60.6734 11.42C61.7534 12.14 62.5434 13.11 63.0434 14.33C63.5434 15.53 63.7934 16.87 63.7934 18.35C63.7934 18.55 63.7834 18.79 63.7634 19.07C63.7434 19.33 63.7134 19.53 63.6734 19.67H53.3234C53.4834 20.29 53.7534 20.81 54.1334 21.23C54.5334 21.65 55.0234 21.97 55.6034 22.19C56.2034 22.39 56.8734 22.49 57.6134 22.49H61.8734V26H57.5534ZM53.2934 16.91H59.6834C59.6434 16.53 59.5734 16.18 59.4734 15.86C59.3734 15.52 59.2334 15.22 59.0534 14.96C58.8734 14.7 58.6634 14.48 58.4234 14.3C58.1834 14.12 57.9034 13.98 57.5834 13.88C57.2634 13.78 56.9134 13.73 56.5334 13.73C56.0334 13.73 55.5834 13.82 55.1834 14C54.8034 14.18 54.4834 14.42 54.2234 14.72C53.9634 15.02 53.7534 15.36 53.5934 15.74C53.4534 16.12 53.3534 16.51 53.2934 16.91ZM72.9191 26.36C71.5191 26.36 70.2991 26 69.2591 25.28C68.2191 24.56 67.4091 23.6 66.8291 22.4C66.2691 21.18 65.9891 19.84 65.9891 18.38C65.9891 16.88 66.3091 15.52 66.9491 14.3C67.6091 13.08 68.5491 12.12 69.7691 11.42C70.9891 10.7 72.4491 10.34 74.1491 10.34C75.8691 10.34 77.3191 10.7 78.4991 11.42C79.6791 12.14 80.5791 13.11 81.1991 14.33C81.8191 15.55 82.1291 16.9 82.1291 18.38V26H78.0191V23.45H77.9591C77.6591 23.99 77.2791 24.48 76.8191 24.92C76.3791 25.36 75.8391 25.71 75.1991 25.97C74.5591 26.23 73.7991 26.36 72.9191 26.36ZM74.0891 22.85C74.8891 22.85 75.5791 22.65 76.1591 22.25C76.7391 21.85 77.1791 21.31 77.4791 20.63C77.7991 19.93 77.9591 19.16 77.9591 18.32C77.9591 17.48 77.7991 16.73 77.4791 16.07C77.1791 15.39 76.7391 14.85 76.1591 14.45C75.5791 14.05 74.8891 13.85 74.0891 13.85C73.2691 13.85 72.5591 14.05 71.9591 14.45C71.3791 14.85 70.9291 15.39 70.6091 16.07C70.3091 16.73 70.1591 17.48 70.1591 18.32C70.1591 19.16 70.3091 19.93 70.6091 20.63C70.9291 21.31 71.3791 21.85 71.9591 22.25C72.5591 22.65 73.2691 22.85 74.0891 22.85Z" fill="black"/>
</svg>
