<svg width="146" height="24" viewBox="0 0 146 24" fill="none" xmlns="http://www.w3.org/2000/svg">
<g clip-path="url(#clip0_3128_299)">
<path d="M12.54 23C11.3 23 10.21 22.72 9.27 22.16C8.33 21.58 7.6 20.82 7.08 19.88C6.56 18.92 6.3 17.87 6.3 16.73V5.78H0.45V2H16.44V5.78H10.59V17.24C10.59 17.78 10.78 18.25 11.16 18.65C11.54 19.03 12 19.22 12.54 19.22H14.04V23H12.54Z" fill="white"/>
<rect x="32" y="15" width="2.7" height="7" fill="white"/>
<path d="M28.782 16.2258L26.5599 14.9308C26.1728 14.7068 25.8574 14.1678 25.8574 13.7268V10.8568" stroke="#9747FF" stroke-width="1.9" stroke-linecap="round" stroke-linejoin="round"/>
<path d="M20.3868 9.8C19.4907 10.969 18.9531 12.425 18.9531 14C18.9531 17.864 22.1645 21 26.1213 21C30.0781 21 33.2895 17.864 33.2895 14C33.2895 10.136 30.0781 7 26.1213 7C25.0962 7 24.1142 7.21 23.2325 7.595" stroke="white" stroke-width="3" stroke-linecap="round" stroke-linejoin="round"/>
<path d="M38.8 22V11.05C38.8 9.69 39.18 8.63 39.94 7.87C40.72 7.09 41.79 6.7 43.15 6.7H47.38V10.21H43.87C43.61 10.21 43.38 10.3 43.18 10.48C43 10.66 42.91 10.89 42.91 11.17V22H38.8ZM57.5534 22C55.8134 22 54.2934 21.67 52.9934 21.01C51.7134 20.33 50.7134 19.41 49.9934 18.25C49.2934 17.09 48.9434 15.79 48.9434 14.35C48.9434 12.73 49.2734 11.32 49.9334 10.12C50.5934 8.92 51.4934 7.99 52.6334 7.33C53.7734 6.67 55.0634 6.34 56.5034 6.34C58.2234 6.34 59.6134 6.7 60.6734 7.42C61.7534 8.14 62.5434 9.11 63.0434 10.33C63.5434 11.53 63.7934 12.87 63.7934 14.35C63.7934 14.55 63.7834 14.79 63.7634 15.07C63.7434 15.33 63.7134 15.53 63.6734 15.67H53.3234C53.4834 16.29 53.7534 16.81 54.1334 17.23C54.5334 17.65 55.0234 17.97 55.6034 18.19C56.2034 18.39 56.8734 18.49 57.6134 18.49H61.8734V22H57.5534ZM53.2934 12.91H59.6834C59.6434 12.53 59.5734 12.18 59.4734 11.86C59.3734 11.52 59.2334 11.22 59.0534 10.96C58.8734 10.7 58.6634 10.48 58.4234 10.3C58.1834 10.12 57.9034 9.98 57.5834 9.88C57.2634 9.78 56.9134 9.73 56.5334 9.73C56.0334 9.73 55.5834 9.82 55.1834 10C54.8034 10.18 54.4834 10.42 54.2234 10.72C53.9634 11.02 53.7534 11.36 53.5934 11.74C53.4534 12.12 53.3534 12.51 53.2934 12.91ZM72.9191 22.36C71.5191 22.36 70.2991 22 69.2591 21.28C68.2191 20.56 67.4091 19.6 66.8291 18.4C66.2691 17.18 65.9891 15.84 65.9891 14.38C65.9891 12.88 66.3091 11.52 66.9491 10.3C67.6091 9.08 68.5491 8.12 69.7691 7.42C70.9891 6.7 72.4491 6.34 74.1491 6.34C75.8691 6.34 77.3191 6.7 78.4991 7.42C79.6791 8.14 80.5791 9.11 81.1991 10.33C81.8191 11.55 82.1291 12.9 82.1291 14.38V22H78.0191V19.45H77.9591C77.6591 19.99 77.2791 20.48 76.8191 20.92C76.3791 21.36 75.8391 21.71 75.1991 21.97C74.5591 22.23 73.7991 22.36 72.9191 22.36ZM74.0891 18.85C74.8891 18.85 75.5791 18.65 76.1591 18.25C76.7391 17.85 77.1791 17.31 77.4791 16.63C77.7991 15.93 77.9591 15.16 77.9591 14.32C77.9591 13.48 77.7991 12.73 77.4791 12.07C77.1791 11.39 76.7391 10.85 76.1591 10.45C75.5791 10.05 74.8891 9.85 74.0891 9.85C73.2691 9.85 72.5591 10.05 71.9591 10.45C71.3791 10.85 70.9291 11.39 70.6091 12.07C70.3091 12.73 70.1591 13.48 70.1591 14.32C70.1591 15.16 70.3091 15.93 70.6091 16.63C70.9291 17.31 71.3791 17.85 71.9591 18.25C72.5591 18.65 73.2691 18.85 74.0891 18.85Z" fill="white"/>
</g>
<defs>
<clipPath id="clip0_3128_299">
<rect width="146" height="24" fill="white"/>
</clipPath>
</defs>
</svg>
