<svg width="146" height="24" viewBox="0 0 146 24" fill="none" xmlns="http://www.w3.org/2000/svg">
<g clip-path="url(#clip0_3128_299)">
<path d="M37.54 23C36.3 23 35.21 22.72 34.27 22.16C33.33 21.58 32.6 20.82 32.08 19.88C31.56 18.92 31.3 17.87 31.3 16.73V5.78H25.45V2H41.44V5.78H35.59V17.24C35.59 17.78 35.78 18.25 36.16 18.65C36.54 19.03 37 19.22 37.54 19.22H39.04V23H37.54Z" fill="black"/>
<rect x="57" y="15" width="2.7" height="7" fill="black"/>
<path d="M53.782 16.2258L51.5599 14.9308C51.1728 14.7068 50.8574 14.1678 50.8574 13.7268V10.8568" stroke="#9747FF" stroke-width="1.9" stroke-linecap="round" stroke-linejoin="round"/>
<path d="M45.3868 9.8C44.4907 10.969 43.9531 12.425 43.9531 14C43.9531 17.864 47.1645 21 51.1213 21C55.0781 21 58.2895 17.864 58.2895 14C58.2895 10.136 55.0781 7 51.1213 7C50.0962 7 49.1142 7.21 48.2325 7.595" stroke="black" stroke-width="3" stroke-linecap="round" stroke-linejoin="round"/>
<path d="M63.8 22V11.05C63.8 9.69 64.18 8.63 64.94 7.87C65.72 7.09 66.79 6.7 68.15 6.7H72.38V10.21H68.87C68.61 10.21 68.38 10.3 68.18 10.48C68 10.66 67.91 10.89 67.91 11.17V22H63.8ZM82.5534 22C80.8134 22 79.2934 21.67 77.9934 21.01C76.7134 20.33 75.7134 19.41 74.9934 18.25C74.2934 17.09 73.9434 15.79 73.9434 14.35C73.9434 12.73 74.2734 11.32 74.9334 10.12C75.5934 8.92 76.4934 7.99 77.6334 7.33C78.7734 6.67 80.0634 6.34 81.5034 6.34C83.2234 6.34 84.6134 6.7 85.6734 7.42C86.7534 8.14 87.5434 9.11 88.0434 10.33C88.5434 11.53 88.7934 12.87 88.7934 14.35C88.7934 14.55 88.7834 14.79 88.7634 15.07C88.7434 15.33 88.7134 15.53 88.6734 15.67H78.3234C78.4834 16.29 78.7534 16.81 79.1334 17.23C79.5334 17.65 80.0234 17.97 80.6034 18.19C81.2034 18.39 81.8734 18.49 82.6134 18.49H86.8734V22H82.5534ZM78.2934 12.91H84.6834C84.6434 12.53 84.5734 12.18 84.4734 11.86C84.3734 11.52 84.2334 11.22 84.0534 10.96C83.8734 10.7 83.6634 10.48 83.4234 10.3C83.1834 10.12 82.9034 9.98 82.5834 9.88C82.2634 9.78 81.9134 9.73 81.5334 9.73C81.0334 9.73 80.5834 9.82 80.1834 10C79.8034 10.18 79.4834 10.42 79.2234 10.72C78.9634 11.02 78.7534 11.36 78.5934 11.74C78.4534 12.12 78.3534 12.51 78.2934 12.91ZM97.9191 22.36C96.5191 22.36 95.2991 22 94.2591 21.28C93.2191 20.56 92.4091 19.6 91.8291 18.4C91.2691 17.18 90.9891 15.84 90.9891 14.38C90.9891 12.88 91.3091 11.52 91.9491 10.3C92.6091 9.08 93.5491 8.12 94.7691 7.42C95.9891 6.7 97.4491 6.34 99.1491 6.34C100.869 6.34 102.319 6.7 103.499 7.42C104.679 8.14 105.579 9.11 106.199 10.33C106.819 11.55 107.129 12.9 107.129 14.38V22H103.019V19.45H102.959C102.659 19.99 102.279 20.48 101.819 20.92C101.379 21.36 100.839 21.71 100.199 21.97C99.5591 22.23 98.7991 22.36 97.9191 22.36ZM99.0891 18.85C99.8891 18.85 100.579 18.65 101.159 18.25C101.739 17.85 102.179 17.31 102.479 16.63C102.799 15.93 102.959 15.16 102.959 14.32C102.959 13.48 102.799 12.73 102.479 12.07C102.179 11.39 101.739 10.85 101.159 10.45C100.579 10.05 99.8891 9.85 99.0891 9.85C98.2691 9.85 97.5591 10.05 96.9591 10.45C96.3791 10.85 95.9291 11.39 95.6091 12.07C95.3091 12.73 95.1591 13.48 95.1591 14.32C95.1591 15.16 95.3091 15.93 95.6091 16.63C95.9291 17.31 96.3791 17.85 96.9591 18.25C97.5591 18.65 98.2691 18.85 99.0891 18.85Z" fill="black"/>
</g>
<defs>
<clipPath id="clip0_3128_299">
<rect width="146" height="24" fill="white"/>
</clipPath>
</defs>
</svg>
